<svg width="256" height="256" viewBox="0 0 256 256" fill="none" xmlns="http://www.w3.org/2000/svg">
  <rect width="256" height="256" rx="56" fill="#111827"/>
  <path d="M62 72C62 58.7452 72.7452 48 86 48H170C183.255 48 194 58.7452 194 72V184C194 197.255 183.255 208 170 208H86C72.7452 208 62 197.255 62 184V72Z" fill="#F9FAFB"/>
  <path d="M86 79C86 74.0294 90.0294 70 95 70H161C165.971 70 170 74.0294 170 79C170 83.9706 165.971 88 161 88H95C90.0294 88 86 83.9706 86 79Z" fill="#111827"/>
  <path d="M86 112C86 107.029 90.0294 103 95 103H141C145.971 103 150 107.029 150 112C150 116.971 145.971 121 141 121H95C90.0294 121 86 116.971 86 112Z" fill="#111827"/>
  <path d="M86 145C86 140.029 90.0294 136 95 136H132C136.971 136 141 140.029 141 145C141 149.971 136.971 154 132 154H95C90.0294 154 86 149.971 86 145Z" fill="#111827"/>
  <path d="M153.125 132.091C156.878 128.837 162.562 129.241 165.816 132.994L180.365 149.771L208.713 118.658C212.059 114.986 217.752 114.722 221.423 118.068C225.095 121.413 225.359 127.106 222.013 130.778L186.844 169.373C183.427 173.122 177.59 173.301 173.949 169.769L152.223 148.782C148.969 145.029 149.372 139.345 153.125 132.091Z" fill="#2DD4BF"/>
  <path d="M191.513 51.496C197.048 44.18 208.67 48.497 208.098 57.654L205.088 105.835C204.729 111.587 198.968 115.378 193.538 113.436L161.949 102.139C153.433 99.093 152.036 87.604 159.606 82.615L191.513 51.496Z" fill="#F59E0B"/>
  <circle cx="197" cy="73" r="12" fill="#111827"/>
</svg>
